<?xml version="1.0" encoding="UTF-8" standalone="no"?>
<svg
   xmlns:dc="http://purl.org/dc/elements/1.1/"
   xmlns:cc="http://creativecommons.org/ns#"
   xmlns:rdf="http://www.w3.org/1999/02/22-rdf-syntax-ns#"
   xmlns:svg="http://www.w3.org/2000/svg"
   xmlns="http://www.w3.org/2000/svg"
   xmlns:xlink="http://www.w3.org/1999/xlink"
   xmlns:sodipodi="http://sodipodi.sourceforge.net/DTD/sodipodi-0.dtd"
   xmlns:inkscape="http://www.inkscape.org/namespaces/inkscape"
   width="800"
   height="800"
   viewBox="0 0 211.66666 211.66666"
   version="1.1"
   id="svg8"
   inkscape:export-filename="/home/fedor/ICS8.png"
   inkscape:export-xdpi="96"
   inkscape:export-ydpi="96"
   inkscape:version="1.0.2 (e86c870879, 2021-01-15)"
   sodipodi:docname="GOST_OTT_logo.svg">
  <defs
     id="defs2">
    <inkscape:path-effect
       effect="powerstroke"
       id="path-effect4435"
       is_visible="true"
       lpeversion="1"
       offset_points="16,0.1322915"
       sort_points="true"
       interpolator_type="CubicBezierJohan"
       interpolator_beta="0.2"
       start_linecap_type="zerowidth"
       linejoin_type="extrp_arc"
       miter_limit="4"
       scale_width="1"
       end_linecap_type="zerowidth" />
    <linearGradient
       inkscape:collect="always"
       id="linearGradient2615">
      <stop
         style="stop-color:#67002b;stop-opacity:1"
         offset="0"
         id="stop2611" />
      <stop
         style="stop-color:#7a0071;stop-opacity:1"
         offset="1"
         id="stop2613" />
    </linearGradient>
    <linearGradient
       inkscape:collect="always"
       xlink:href="#linearGradient2615"
       id="linearGradient2617"
       x1="84.666664"
       y1="74.083328"
       x2="174.625"
       y2="153.45833"
       gradientUnits="userSpaceOnUse"
       gradientTransform="matrix(1.1428571,0,0,1.1428571,-268.16665,-119.99999)" />
  </defs>
  <sodipodi:namedview
     id="base"
     pagecolor="#ffffff"
     bordercolor="#666666"
     borderopacity="1.0"
     inkscape:pageopacity="0.0"
     inkscape:pageshadow="2"
     inkscape:zoom="0.515625"
     inkscape:cx="11.647591"
     inkscape:cy="412.45207"
     inkscape:document-units="px"
     inkscape:current-layer="layer1"
     inkscape:document-rotation="0"
     showgrid="false"
     inkscape:snap-object-midpoints="false"
     units="px"
     inkscape:window-width="1920"
     inkscape:window-height="1019"
     inkscape:window-x="0"
     inkscape:window-y="32"
     inkscape:window-maximized="1"
     inkscape:snap-others="true"
     inkscape:snap-global="false">
    <inkscape:grid
       type="xygrid"
       id="grid1779" />
  </sodipodi:namedview>
  <metadata
     id="metadata5">
    <rdf:RDF>
      <cc:Work
         rdf:about="">
        <dc:format>image/svg+xml</dc:format>
        <dc:type
           rdf:resource="http://purl.org/dc/dcmitype/StillImage" />
        <dc:title></dc:title>
      </cc:Work>
    </rdf:RDF>
  </metadata>
  <g
     inkscape:label="Слой 1"
     inkscape:groupmode="layer"
     id="layer1">
    <text
       xml:space="preserve"
       style="font-style:normal;font-variant:normal;font-weight:normal;font-stretch:normal;font-size:10.5833px;line-height:1.25;font-family:Webdings;-inkscape-font-specification:Webdings;letter-spacing:0px;stroke-width:0.264583"
       x="42.11763"
       y="107.44015"
       id="text835"><tspan
         sodipodi:role="line"
         x="42.11763"
         y="107.44015"
         style="font-style:normal;font-variant:normal;font-weight:normal;font-stretch:normal;font-family:'URW Gothic';-inkscape-font-specification:'URW Gothic';stroke-width:0.264583"
         id="tspan839" /></text>
    <g
       aria-label="G"
       id="text4447"
       style="font-style:normal;font-variant:normal;font-weight:normal;font-stretch:normal;font-size:10.5833px;line-height:1.25;font-family:P052;-inkscape-font-specification:P052;letter-spacing:0px;stroke-width:0.264583" />
    <circle
       style="opacity:1;fill:#ffffff;fill-opacity:1;stroke:none;stroke-width:0.0649999;stroke-dashoffset:260.787;paint-order:markers stroke fill"
       id="path4809"
       cx="105.83333"
       cy="105.83333"
       r="105.83333" />
    <g
       id="g4693"
       transform="matrix(7.99999,0,0,7.99999,-785.6169,-751.41556)">
      <path
         id="path4495-2"
         style="fill:#ff8686;fill-opacity:1;stroke-width:0.13;stroke-dashoffset:260.787;paint-order:markers stroke fill"
         d="m 101.85938,104.51041 a 2.6458333,2.6458333 0 0 0 -2.640673,2.64583 2.6458333,2.6458333 0 0 0 2.645833,2.64584 2.6458333,2.6458333 0 0 0 2.64584,-2.64584 2.6458333,2.6458333 0 0 0 -0.0134,-0.26458 H 104.24583 103.9642 101.6 v 0.52917 h 2.36471 a 2.1166777,2.1166634 0 0 1 -2.10013,1.85208 2.1166777,2.1166634 0 0 1 -2.116673,-2.11667 2.1166777,2.1166634 0 0 1 2.116673,-2.11666 2.1166777,2.1166634 0 0 1 1.83348,1.05833 h 0.59118 a 2.6458333,2.6458333 0 0 0 -2.42466,-1.5875 2.6458333,2.6458333 0 0 0 -0.005,0 z" />
      <path
         id="path4550"
         style="opacity:1;fill:#6ec98a;fill-opacity:1;stroke:none;stroke-width:0.245669;stroke-dashoffset:260.787;paint-order:markers stroke fill"
         d="M 409.98047,395 A 10,10 0 0 0 400,405 a 10,10 0 0 0 10,10 10,10 0 0 0 10,-10 10,10 0 0 0 -10,-10 10,10 0 0 0 -0.0195,0 z M 410,397 a 7.9999998,7.9999998 0 0 1 8,8 7.9999998,7.9999998 0 0 1 -8,8 7.9999998,7.9999998 0 0 1 -8,-8 7.9999998,7.9999998 0 0 1 8,-8 z"
         transform="scale(0.26458333)" />
      <path
         id="path4550-1"
         style="fill:#9a86ff;fill-opacity:1;stroke:none;stroke-width:0.0649999;stroke-dashoffset:260.787;paint-order:markers stroke fill"
         d="m 115.07518,104.51041 a 2.6458333,2.6458333 0 0 0 -2.64067,2.64584 2.6458333,2.6458333 0 0 0 0.0134,0.26458 h 0.25114 0.28164 4.19974 a 2.1166667,2.1166667 0 0 1 -2.10013,1.85208 h -1.58698 a 2.6458333,2.6458333 0 0 0 1.58698,0.52917 2.6458333,2.6458333 0 0 0 2.64584,-2.64583 2.6458333,2.6458333 0 0 0 -0.0134,-0.26459 h -0.25115 -0.28163 -4.19975 a 2.1166667,2.1166667 0 0 1 2.10013,-1.85208 h 1.58699 a 2.6458333,2.6458333 0 0 0 -1.58699,-0.52917 2.6458333,2.6458333 0 0 0 -0.005,0 z" />
      <path
         id="path4550-9"
         style="fill:#faf091;fill-opacity:1;stroke:none;stroke-width:0.0649999;stroke-dashoffset:260.787;paint-order:markers stroke fill"
         d="m 121.34815,104.51041 a 2.6458333,2.6458333 0 0 0 -2.28565,1.32292 h 0.63872 a 2.1166667,2.1166667 0 0 1 1.38751,-0.77722 v 4.20026 0.28112 0.25115 a 2.6458333,2.6458333 0 0 0 0.26458,0.0134 2.6458333,2.6458333 0 0 0 0.26459,-0.0134 v -0.25115 -0.28163 -4.19975 a 2.1166667,2.1166667 0 0 1 1.38751,0.77722 h 0.63872 a 2.6458333,2.6458333 0 0 0 -2.29082,-1.32292 2.6458333,2.6458333 0 0 0 -0.005,0 z" />
    </g>
    <g
       id="g4780"
       transform="translate(136.81956,-28.045832)">
      <path
         id="path4772"
         style="fill:#ff8686;fill-opacity:1;stroke-width:0.13;stroke-dashoffset:260.787;paint-order:markers stroke fill"
         d="m 101.85938,104.51041 a 2.6458333,2.6458333 0 0 0 -2.640673,2.64583 2.6458333,2.6458333 0 0 0 2.645833,2.64584 2.6458333,2.6458333 0 0 0 2.64584,-2.64584 2.6458333,2.6458333 0 0 0 -0.0134,-0.26458 H 104.24583 103.9642 101.6 v 0.52917 h 2.36471 a 2.1166777,2.1166634 0 0 1 -2.10013,1.85208 2.1166777,2.1166634 0 0 1 -2.116673,-2.11667 2.1166777,2.1166634 0 0 1 2.116673,-2.11666 2.1166777,2.1166634 0 0 1 1.83348,1.05833 h 0.59118 a 2.6458333,2.6458333 0 0 0 -2.42466,-1.5875 2.6458333,2.6458333 0 0 0 -0.005,0 z" />
      <path
         id="path4774"
         style="opacity:1;fill:#6ec98a;fill-opacity:1;stroke:none;stroke-width:0.245669;stroke-dashoffset:260.787;paint-order:markers stroke fill"
         d="M 409.98047,395 A 10,10 0 0 0 400,405 a 10,10 0 0 0 10,10 10,10 0 0 0 10,-10 10,10 0 0 0 -10,-10 10,10 0 0 0 -0.0195,0 z M 410,397 a 7.9999998,7.9999998 0 0 1 8,8 7.9999998,7.9999998 0 0 1 -8,8 7.9999998,7.9999998 0 0 1 -8,-8 7.9999998,7.9999998 0 0 1 8,-8 z"
         transform="scale(0.26458333)" />
      <path
         id="path4776"
         style="fill:#9a86ff;fill-opacity:1;stroke:none;stroke-width:0.0649999;stroke-dashoffset:260.787;paint-order:markers stroke fill"
         d="m 115.07518,104.51041 a 2.6458333,2.6458333 0 0 0 -2.64067,2.64584 2.6458333,2.6458333 0 0 0 0.0134,0.26458 h 0.25114 0.28164 4.19974 a 2.1166667,2.1166667 0 0 1 -2.10013,1.85208 h -1.58698 a 2.6458333,2.6458333 0 0 0 1.58698,0.52917 2.6458333,2.6458333 0 0 0 2.64584,-2.64583 2.6458333,2.6458333 0 0 0 -0.0134,-0.26459 h -0.25115 -0.28163 -4.19975 a 2.1166667,2.1166667 0 0 1 2.10013,-1.85208 h 1.58699 a 2.6458333,2.6458333 0 0 0 -1.58699,-0.52917 2.6458333,2.6458333 0 0 0 -0.005,0 z" />
      <path
         id="path4778"
         style="fill:#faf091;fill-opacity:1;stroke:none;stroke-width:0.0649999;stroke-dashoffset:260.787;paint-order:markers stroke fill"
         d="m 121.34815,104.51041 a 2.6458333,2.6458333 0 0 0 -2.28565,1.32292 h 0.63872 a 2.1166667,2.1166667 0 0 1 1.38751,-0.77722 v 4.20026 0.28112 0.25115 a 2.6458333,2.6458333 0 0 0 0.26458,0.0134 2.6458333,2.6458333 0 0 0 0.26459,-0.0134 v -0.25115 -0.28163 -4.19975 a 2.1166667,2.1166667 0 0 1 1.38751,0.77722 h 0.63872 a 2.6458333,2.6458333 0 0 0 -2.29082,-1.32292 2.6458333,2.6458333 0 0 0 -0.005,0 z" />
    </g>
  </g>
</svg>
